<svg id="prefix__prefix__Capa_1" data-name="Capa 1" xmlns="http://www.w3.org/2000/svg" viewBox="0 0 400 400"><defs><style>.prefix__prefix__cls-1,.prefix__prefix__cls-11,.prefix__prefix__cls-14,.prefix__prefix__cls-15,.prefix__prefix__cls-16,.prefix__prefix__cls-19,.prefix__prefix__cls-3,.prefix__prefix__cls-9{fill:none}.prefix__prefix__cls-2,.prefix__prefix__cls-20,.prefix__prefix__cls-4{fill:#fff}.prefix__prefix__cls-11,.prefix__prefix__cls-14,.prefix__prefix__cls-15,.prefix__prefix__cls-16,.prefix__prefix__cls-19,.prefix__prefix__cls-2,.prefix__prefix__cls-3,.prefix__prefix__cls-5,.prefix__prefix__cls-9{stroke:#000}.prefix__prefix__cls-11,.prefix__prefix__cls-14,.prefix__prefix__cls-15,.prefix__prefix__cls-16,.prefix__prefix__cls-19,.prefix__prefix__cls-2,.prefix__prefix__cls-20,.prefix__prefix__cls-3,.prefix__prefix__cls-5,.prefix__prefix__cls-9{stroke-miterlimit:10}.prefix__prefix__cls-2,.prefix__prefix__cls-3,.prefix__prefix__cls-5{stroke-width:.25px}.prefix__prefix__cls-14,.prefix__prefix__cls-15,.prefix__prefix__cls-19,.prefix__prefix__cls-20,.prefix__prefix__cls-3{stroke-linecap:round}.prefix__prefix__cls-8{fill:#3b344d}.prefix__prefix__cls-9{stroke-width:3.14px}.prefix__prefix__cls-10{fill:#ffdafc}.prefix__prefix__cls-11,.prefix__prefix__cls-15{stroke-width:1.57px}.prefix__prefix__cls-14{stroke-width:.39px}.prefix__prefix__cls-16{stroke-width:3px}.prefix__prefix__cls-19{stroke-width:4px}.prefix__prefix__cls-20{stroke:#fff;stroke-width:3.88px}</style></defs><path class="prefix__prefix__cls-1" d="M0 0h400v400H0z" id="prefix__prefix__margin"/><g id="prefix__prefix__mouse"><path class="prefix__prefix__cls-2" d="M326.6 311.93a162.23 162.23 0 0018.83-23.15 170.24 170.24 0 0014.33-26.16 175.56 175.56 0 009.65-28.22 172.2 172.2 0 004.78-29.4c.43-5 .51-9.94.52-14.91a142.21 142.21 0 00-.8-14.88c-.51-4.94-1.19-9.87-2-14.77a138.71 138.71 0 00-3.33-14.52 175.47 175.47 0 00-25.15-53.7 177.9 177.9 0 00-19-22.9A174.1 174.1 0 00301.86 50a178.31 178.31 0 00-53.11-26.19A169.07 169.07 0 00190 16.87 174 174 0 0082.9 62.71a168.41 168.41 0 00-36.19 46.55c-18.48 35-24 76.36-16.11 115.06a178.49 178.49 0 0059.07 100.43 170.54 170.54 0 00109.52 40.41.18.18 0 01.17.17.18.18 0 01-.17.17 169.92 169.92 0 01-59-9.42 174 174 0 01-27.36-12.41A169.58 169.58 0 0188 326.62 180.54 180.54 0 0127.19 225a178.72 178.72 0 01-2-60.15A170.91 170.91 0 0180.8 60.38a181 181 0 0179.27-41.7 178.53 178.53 0 0129.81-4.32 171.58 171.58 0 0159.53 7.22A180.9 180.9 0 01303 48.32a176.66 176.66 0 0166.86 97.21c1.34 4.83 2.34 9.74 3.28 14.66a135.48 135.48 0 011.94 14.88c.39 5 .65 10 .72 15a142 142 0 01-.61 15 173 173 0 01-5 29.55 176.25 176.25 0 01-9.83 28.25 171.54 171.54 0 01-14.53 26.18 162.42 162.42 0 01-19 23.1.18.18 0 01-.25-.25z"/><path class="prefix__prefix__cls-3" d="M226.02 369.07l7.87 9.5m-7.55-20.17l8.97-9.14"/><path class="prefix__prefix__cls-4" transform="rotate(-88.31 201.315 363.586)" d="M181.87 351.59h38.9v24h-38.9z"/><path class="prefix__prefix__cls-2" d="M190.75 384.46a36.58 36.58 0 01-5.32-.72 25.74 25.74 0 01-10-3.95 21.38 21.38 0 01-6-6.35 21 21 0 01-2.88-12 22.1 22.1 0 014.27-11.39c5.16-7 12.77-8.51 15.15-9a25.68 25.68 0 016.89-.36m21.02 3.8l-1-.45a58.07 58.07 0 0111 6.2c3.16 2.27 4.77 3.46 6.14 5.63.38.59 3.67 6 1.69 12.23-1.62 5.07-5.78 7.58-9.38 9.76a30.59 30.59 0 01-10.23 3.86"/><circle class="prefix__prefix__cls-5" cx="217.06" cy="356.23" r="1.33"/><circle class="prefix__prefix__cls-5" cx="216.45" cy="370.75" r="1.33"/><path class="prefix__prefix__cls-2" d="M203.75 353.25a9.45 9.45 0 01-3.09-.24 10 10 0 01-4.69-2.66 13 13 0 01-1-14.91 10.92 10.92 0 018.28-4.39c5.12 0 9.09 4.07 10.29 8.16a11.15 11.15 0 01.11 5.62"/><path d="M203.3 373.17a11 11 0 00-8.56 18.7A10.61 10.61 0 00202 395a10.89 10.89 0 009.73-6.31 11.32 11.32 0 00.78-7.14" stroke-linecap="round" stroke-width=".25" stroke-miterlimit="10" stroke="#000" fill="#fff"/><path class="prefix__prefix__cls-3" d="M225.17 355.14l7.77-13.29"/><ellipse cx="232.51" cy="364.26" rx="2.88" ry="1.54" transform="rotate(-88.31 232.516 364.257)" stroke-miterlimit="10" stroke-width=".25" stroke="#000"/><path class="prefix__prefix__cls-3" d="M221.94 355.04l4.01-12.2m-1.29 29.49l6.96 14.17m-10.17-14.76l3.27 13.01"/><animateTransform attributeName="transform" type="rotate" from="0 200 200" to="-360 200 200" begin="0s" dur="10s" repeatCount="indefinite"/></g><g id="prefix__prefix__cat"><circle class="prefix__prefix__cls-1" cx="240.67" cy="215.72" r="7.99"/><path class="prefix__prefix__cls-8" d="M289.66 151c-.56-5.4-1.25-12.74-2-23.11-3.54-64.46-53.3-.14-69.67 34.32L284.62 192c1.29-5 2.35-8.81 3.21-11.86a11.24 11.24 0 01.49-3.31c.17-.55.34-1.11.52-1.67a10.39 10.39 0 01.06-1.37 38.14 38.14 0 01.61-5 65.21 65.21 0 01.12-17.76"/><path class="prefix__prefix__cls-9" d="M289.66 151c-.56-5.4-1.25-12.74-2-23.11-3.54-64.46-53.3-.14-69.67 34.32L284.62 192c1.29-5 2.35-8.81 3.21-11.86a11.24 11.24 0 01.49-3.31c.17-.55.34-1.11.52-1.67a10.39 10.39 0 01.06-1.37 38.14 38.14 0 01.61-5 65.43 65.43 0 01.15-17.79z"/><path class="prefix__prefix__cls-8" d="M172.58 159.17a64.56 64.56 0 00-4.58-15.65c-4.51-10.41-10.61-16.89-17.17-23.73-4.36-4.55-11.28-12.37-21.7-18.17-2.89-1.61-6.4-3.29-9.59-2-1.31.51-2.92 1.66-6.57 9.08a70.3 70.3 0 00-4.54 10.6c-6.9 21.84-3.53 44.93-3.53 44.93A105.49 105.49 0 00113 192"/><path class="prefix__prefix__cls-9" d="M172.58 159.17a64.56 64.56 0 00-4.58-15.65c-4.51-10.41-10.61-16.89-17.17-23.73-4.36-4.55-11.28-12.37-21.7-18.17-2.89-1.61-6.4-3.29-9.59-2-1.31.51-2.92 1.66-6.57 9.08a70.3 70.3 0 00-4.54 10.6c-6.9 21.84-3.53 44.93-3.53 44.93A105.49 105.49 0 00113 192"/><path class="prefix__prefix__cls-10" d="M112 184.87c-5-15.3-8.51-64 6.56-82.29 10.88 13.39 30 39.64 29.29 54"/><path class="prefix__prefix__cls-11" d="M112 184.87c-5-15.3-8.51-64 6.56-82.29 10.88 13.39 30 39.64 29.29 54"/><path class="prefix__prefix__cls-10" d="M283.64 185.92c7.27-15.94 4.9-67.08-7.06-82.79-5.44 1.86-39.64 46.37-30.29 55"/><path class="prefix__prefix__cls-11" d="M283.64 185.92c7.27-15.94 4.9-67.08-7.06-82.79-5.44 1.86-39.64 46.37-30.29 55"/><path class="prefix__prefix__cls-8" d="M282.38 247c-19.67 29.29-61.73 28.81-91.62 29.53-58.71 1.58-117-32-77.24-93.9 49.81-63.27 217.55-28.93 168.86 64.37"/><path d="M282.38 247c-19.67 29.29-61.73 28.81-91.62 29.53-58.71 1.58-117-32-77.24-93.9 49.81-63.26 217.55-28.92 168.86 64.37z" stroke-width="3.93" stroke-miterlimit="10" stroke="#000" fill="none"/><path d="M244.74 157.15c1.11-.17 2.73-.37 4.71-.51a27 27 0 016.23 0c3.49.53 6.34 2.09 6.23 2.53-.05.16-.45.07-2.34.46l-1.15.27s-.73.2-1.39.44c-.95.35-2.95 1.22-2.87 1.52s7.24-.17 7.24-.17 3 1.18 3.53 1.51a16.86 16.86 0 013.37 2.7c1.09 1 1.64 1.56 1.51 1.85-.26.62-2.72-.34-6.22-.17a18.08 18.08 0 00-4 .67" fill="#3d334b"/><path class="prefix__prefix__cls-11" d="M244.74 157.15c1.11-.17 2.73-.37 4.71-.51a27 27 0 016.23 0c3.49.53 6.34 2.09 6.23 2.53-.05.16-.45.07-2.34.46l-1.15.27s-.73.2-1.39.44c-.95.35-2.95 1.22-2.87 1.52s7.24-.17 7.24-.17 3 1.18 3.53 1.51a16.86 16.86 0 013.37 2.7c1.09 1 1.64 1.56 1.51 1.85-.26.62-2.72-.34-6.22-.17a18.08 18.08 0 00-4 .67"/><path d="M199.65 230.4h.21c.54 0 1.09.08 1.63.08h1.71l.24.05c.76.29 1.53.55 2.31.77.06.09.12.18.17.27v2.53a27.2 27.2 0 00-6 4.09c-.26.23-.51.48-.76.72h-.44v-8.48h.9"/><path class="prefix__prefix__cls-9" d="M199.65 230.4h.21c.54 0 1.09.08 1.63.08h1.71l.24.05c.76.29 1.53.55 2.31.77.06.09.12.18.17.27v2.53a27.2 27.2 0 00-6 4.09c-.26.23-.51.48-.76.72h-.44v-8.48z"/><path d="M222.69 218.42a32.25 32.25 0 016.06-5.9 34.44 34.44 0 017-4 38.91 38.91 0 016.91-2.06c1.69-.39 1.29-.22 6.09-1h.51a24.63 24.63 0 003.84-.28 19.89 19.89 0 002.35-.15h.66a12.93 12.93 0 001.49.61 4.69 4.69 0 011.68 2.22 4.11 4.11 0 01-.28 3.44 3.74 3.74 0 01-1.55 1.37 4.82 4.82 0 01-2.68.28c-1.68-.17-3.38.05-5.07 0-2.88-.1-5.24 0-5.92 0-8.89.39-17.46 7.46-18.59 9.2a3.14 3.14 0 01-1.41 1.24 2.5 2.5 0 01-1.55.14 2.33 2.33 0 01-1.41-1c-.44-.78.06-2 1.83-4.26"/><path class="prefix__prefix__cls-14" d="M222.69 218.42a32.25 32.25 0 016.06-5.9 34.44 34.44 0 017-4 38.91 38.91 0 016.91-2.06c1.69-.39 1.29-.22 6.09-1h.51a24.63 24.63 0 003.84-.28 19.89 19.89 0 002.35-.15h.66a12.93 12.93 0 001.49.61 4.69 4.69 0 011.68 2.22 4.11 4.11 0 01-.28 3.44 3.74 3.74 0 01-1.55 1.37 4.82 4.82 0 01-2.68.28c-1.68-.17-3.38.05-5.07 0-2.88-.1-5.24 0-5.92 0-8.89.39-17.46 7.46-18.59 9.2a3.14 3.14 0 01-1.41 1.24 2.5 2.5 0 01-1.55.14 2.33 2.33 0 01-1.41-1c-.4-.66.1-1.88 1.87-4.11z"/><path class="prefix__prefix__cls-15" d="M240.86 198.37a7.11 7.11 0 012.81 9.34m5.33-10.04a7.13 7.13 0 012.8 9.33m5.28-10.89a7.13 7.13 0 011.78 9.59"/><path d="M198.56 230.43h-.2c-.54 0-1.09.07-1.63.07h-1.93a24.12 24.12 0 01-2.31.78l-.18.26v2.54a27 27 0 016 4.09c.26.23.51.47.76.72h.43v-8.49h-.9"/><path class="prefix__prefix__cls-9" d="M198.56 230.43h-.2c-.54 0-1.09.07-1.63.07h-1.93a24.12 24.12 0 01-2.31.78l-.18.26v2.54a27 27 0 016 4.09c.26.23.51.47.76.72h.43v-8.49z"/><path d="M175.53 218.45a32.93 32.93 0 00-6.06-5.91 34.81 34.81 0 00-7.05-4 38.56 38.56 0 00-6.9-2.06c-1.7-.39-1.3-.22-6.09-1h-.52a23.48 23.48 0 01-3.84-.29 22.12 22.12 0 01-2.34-.14h-.66a12.88 12.88 0 01-1.49.6 4.62 4.62 0 00-1.69 2.23 4.13 4.13 0 00.29 3.43 3.63 3.63 0 001.55 1.38 4.78 4.78 0 002.67.27c1.69-.16 3.39.06 5.08 0 2.88-.09 5.24 0 5.91 0 8.89.39 17.46 7.47 18.6 9.21a3.26 3.26 0 001.41 1.24 2.57 2.57 0 001.55.13 2.33 2.33 0 001.41-1c.44-.78-.07-2-1.83-4.26"/><path class="prefix__prefix__cls-14" d="M175.53 218.45a32.93 32.93 0 00-6.06-5.91 34.81 34.81 0 00-7.05-4 38.56 38.56 0 00-6.9-2.06c-1.7-.39-1.3-.22-6.09-1h-.52a23.48 23.48 0 01-3.84-.29 22.12 22.12 0 01-2.34-.14h-.66a12.88 12.88 0 01-1.49.6 4.62 4.62 0 00-1.69 2.23 4.13 4.13 0 00.29 3.43 3.63 3.63 0 001.55 1.38 4.78 4.78 0 002.67.27c1.69-.16 3.39.06 5.08 0 2.88-.09 5.24 0 5.91 0 8.89.39 17.46 7.47 18.6 9.21a3.26 3.26 0 001.41 1.24 2.57 2.57 0 001.55.13 2.33 2.33 0 001.41-1c.44-.61-.07-1.86-1.83-4.09z"/><path class="prefix__prefix__cls-15" d="M157.36 198.39a7.13 7.13 0 00-2.82 9.35m-5.3-10.04a7.12 7.12 0 00-2.82 9.34m-5.23-10.9a7.31 7.31 0 00-2.58 3.6 7.41 7.41 0 00.8 6"/><path class="prefix__prefix__cls-8" d="M154.63 157.42c-1.1-.16-2.73-.37-4.71-.51a27 27 0 00-6.22 0c-3.5.54-6.34 2.09-6.23 2.53 0 .16.45.07 2.33.46.46.1.81.18 1.15.27 0 0 .74.2 1.4.45.94.34 3 1.22 2.86 1.51S138 162 138 162s-2.95 1.18-3.53 1.52a16.81 16.81 0 00-3.37 2.69c-1.09 1-1.63 1.57-1.51 1.85.27.62 2.72-.34 6.23-.17a18.08 18.08 0 014 .67"/><path class="prefix__prefix__cls-11" d="M154.63 157.42c-1.1-.16-2.73-.37-4.71-.51a27 27 0 00-6.22 0c-3.5.54-6.34 2.09-6.23 2.53 0 .16.45.07 2.33.46.46.1.81.18 1.15.27 0 0 .74.2 1.4.45.94.34 3 1.22 2.86 1.51S138 162 138 162s-2.95 1.18-3.53 1.52a16.81 16.81 0 00-3.37 2.69c-1.09 1-1.63 1.57-1.51 1.85.27.62 2.72-.34 6.23-.17a18.08 18.08 0 014 .67"/><path class="prefix__prefix__cls-8" transform="rotate(-64.43 228.402 163.881)" d="M213.83 155.96h29.15v15.85h-29.15z"/><path class="prefix__prefix__cls-8" transform="rotate(-26.62 163.248 160.878)" d="M153.45 146.56h19.6v28.64h-19.6z"/><path class="prefix__prefix__cls-8" d="M249 158.77c4.62 5.3 11.18 8.15 9.91 10.7s-7.76 1.89-14.51-1.48-11.34-8.23-9.91-10.7c1.67-2.87 10-3.71 14.51 1.48"/><path class="prefix__prefix__cls-4" d="M264.69 214.87a24.5 24.5 0 11-24.5-24.5 24.5 24.5 0 0124.5 24.5"/><circle class="prefix__prefix__cls-16" cx="240.18" cy="214.87" r="24.5"/><path d="M255 215.43a16.29 16.29 0 11-16.29-16.29A16.29 16.29 0 01255 215.43"/><path d="M255 215.43a16.29 16.29 0 11-16.29-16.29A16.29 16.29 0 01255 215.43z" stroke-width="2.13" stroke-miterlimit="10" stroke="#000" fill="none"/><path d="M140.84 180.36a15.14 15.14 0 003.45 6.23c.79.86 1.85 1.35 2.58 2.2a23.17 23.17 0 012.38 2.94.18.18 0 01-.06.25h-.06a5 5 0 01-2.15-.07 6.56 6.56 0 01-1.95-.77 8 8 0 01-2.66-3.15 12.57 12.57 0 01-1.54-3.73 13.17 13.17 0 01-.29-3.91.15.15 0 01.16-.13.15.15 0 01.14.11m10-1.46a28.41 28.41 0 00.53 3.55 33 33 0 00.89 3.38 21.31 21.31 0 011.22 3.2 12 12 0 01.19 3.74.2.2 0 01-.21.16h-.06a5.7 5.7 0 01-1.62-1.27 7.36 7.36 0 01-1.12-1.59 9.06 9.06 0 01-.75-3.74 20.71 20.71 0 01.67-7.43.16.16 0 01.19-.11.16.16 0 01.11.13m10.92.58a15.74 15.74 0 00-1.48 3.1 15.12 15.12 0 00-.8 3.18 8.66 8.66 0 000 1.61 6.88 6.88 0 01-.11 1.57c-.11.52-.23 1.06-.39 1.62a10.66 10.66 0 01-.65 1.79.16.16 0 01-.22.09h-.07a5.66 5.66 0 01-1.67-3.54 7.45 7.45 0 01.83-3.73 13.26 13.26 0 011.8-3.28 13.7 13.7 0 012.58-2.58.15.15 0 01.21 0 .14.14 0 010 .17"/><path class="prefix__prefix__cls-4" d="M134 214.74a24.5 24.5 0 1024.5-24.5 24.5 24.5 0 00-24.5 24.5"/><circle class="prefix__prefix__cls-16" cx="158.51" cy="214.74" r="24.5"/><path d="M143.7 215.3A16.29 16.29 0 10160 199a16.28 16.28 0 00-16.28 16.28"/><circle cx="160" cy="215.28" r="16.29" transform="rotate(-16.85 159.997 215.268)" stroke-miterlimit="10" stroke-width="2.13" stroke="#000" fill="none"/><path d="M260.24 182a12.88 12.88 0 01-1.18 3.73 12.34 12.34 0 01-2.36 3.27 7.85 7.85 0 01-3.32 2.45 6.62 6.62 0 01-2.07.31 5.08 5.08 0 01-2.11-.43.18.18 0 01-.09-.24V191a23.23 23.23 0 013-2.31c.91-.66 2-.9 3-1.55a14.18 14.18 0 002.66-2.29 15.45 15.45 0 002.14-3 .15.15 0 01.2-.06.14.14 0 01.08.15m-9.33-3.75a19.51 19.51 0 01-1.1 7.38 9.07 9.07 0 01-1.59 3.47 7.46 7.46 0 01-1.46 1.29 5.59 5.59 0 01-1.87.86.19.19 0 01-.22-.13V191a11.86 11.86 0 011-3.59 20.21 20.21 0 011.92-2.84c.6-1 1.15-2 1.65-3.08a30 30 0 001.33-3.33.16.16 0 01.2-.09.14.14 0 01.1.13M240 176.06a12.86 12.86 0 012.91 6.71 7.49 7.49 0 01-.05 3.82 5.65 5.65 0 01-2.44 3.06.19.19 0 01-.25-.06v-.05a12 12 0 01-.21-1.89 15.32 15.32 0 010-1.66 6.87 6.87 0 01.25-1.55 7.65 7.65 0 00.33-1.58 16.34 16.34 0 000-3.28 16.12 16.12 0 00-.73-3.36.15.15 0 01.1-.19.14.14 0 01.16 0m28.12 60.84c3.06-1.23 6.16-2.34 9.27-3.45s6.24-2.19 9.41-3.09a164.38 164.38 0 0119.32-4.72c3.28-.53 6.59-1 9.91-1.2s6.65-.33 10-.2a91.75 91.75 0 0119.59 2.66c-6.6-.38-13.14-.56-19.65-.32-3.26.15-6.51.33-9.74.69s-6.45.76-9.65 1.33-6.4 1.18-9.6 1.87-6.38 1.45-9.59 2.15-6.4 1.49-9.6 2.23-6.41 1.45-9.67 2.05m-5 10a109.55 109.55 0 0120.63 5 37.92 37.92 0 015 2.13 22.09 22.09 0 014.51 3.23 25.72 25.72 0 016.36 8.64 53.61 53.61 0 00-7.82-6.85 31.5 31.5 0 00-4.31-2.52c-1.5-.68-3.13-1.27-4.76-1.85-3.27-1.17-6.58-2.34-9.87-3.59a98.48 98.48 0 01-9.74-4.19m-133-10.5c-5.47-1.31-10.89-2.57-16.33-3.62-2.72-.47-5.45-.93-8.21-1.3s-5.5-.78-8.26-1.11l-16.58-2.12c-5.54-.71-11.07-1.43-16.62-2.35a157.47 157.47 0 0116.83 0c2.8.11 5.59.36 8.39.58s5.58.57 8.37.9a133.68 133.68 0 0116.6 3.11 90 90 0 0115.81 5.91m5.5 10.5c-3.34.86-6.59 1.71-9.75 2.77a85.19 85.19 0 00-9.22 3.69 82.68 82.68 0 00-8.72 4.76c-2.81 1.78-5.53 3.78-8.31 5.78a34.06 34.06 0 016.94-7.68 41.12 41.12 0 018.81-5.58 41.65 41.65 0 019.91-3.23 34.51 34.51 0 0110.34-.51"/><path class="prefix__prefix__cls-19" d="M198.75 235.87a20 20 0 003.94 9 20.91 20.91 0 0013 7.5"/><path class="prefix__prefix__cls-19" d="M198.81 235.68a20 20 0 01-3.93 9 21 21 0 01-13 7.5"/><circle class="prefix__prefix__cls-20" cx="245.39" cy="208.27" r="5.23"/><circle class="prefix__prefix__cls-20" cx="168.49" cy="209.2" r="5.23"/><ellipse cx="159.06" cy="215.05" rx="19.37" ry="16.66" stroke-width="4.13" stroke="#fff" stroke-linecap="round" stroke-miterlimit="10" fill="#fff"/><circle cx="240.51" cy="214.16" r="19.37" transform="rotate(-80.78 240.521 214.16)" stroke-width="4.46" stroke="#fff" stroke-linecap="round" stroke-miterlimit="10" fill="#fff"/></g><path class="prefix__prefix__cls-1" d="M51.39 40.34h300v300h-300z" id="prefix__prefix__inner_margin" data-name="inner margin"/><g id="prefix__prefix__left_eye" data-name="left eye"><ellipse cx="160.62" cy="223.82" rx="10.9" ry="10.66"/><circle class="prefix__prefix__cls-4" cx="159.62" cy="227.71" r="3.46"/><animateTransform attributeName="transform" type="rotate" from="0 160 225" to="-360 160 210" begin="0s" dur="10s" repeatCount="indefinite"/></g><g id="prefix__prefix__right_eye" data-name="right eye"><ellipse cx="240.72" cy="224.64" rx="10.9" ry="10.66"/><circle class="prefix__prefix__cls-4" cx="240.45" cy="227.71" r="3.46"/><animateTransform attributeName="transform" type="rotate" from="0 240 225" to="-360 240 210" begin="0s" dur="10s" repeatCount="indefinite"/></g></svg>