<svg xmlns="http://www.w3.org/2000/svg" viewBox="0 0 400 400">
  <defs>
    <style>
      .cls-1, .cls-11, .cls-12, .cls-14, .cls-15, .cls-16, .cls-17, .cls-18, .cls-9 {
        fill: none;
      }

      .cls-19, .cls-2, .cls-20, .cls-21, .cls-3, .cls-4, .cls-5, .cls-7 {
        fill: #fff;
      }

      .cls-11, .cls-12, .cls-14, .cls-15, .cls-16, .cls-17, .cls-18, .cls-3, .cls-4, .cls-5, .cls-6, .cls-7, .cls-9 {
        stroke: #000;
      }

      .cls-14, .cls-15, .cls-18, .cls-19, .cls-20, .cls-21, .cls-3, .cls-7 {
        stroke-linecap: round;
      }

      .cls-11, .cls-12, .cls-14, .cls-15, .cls-16, .cls-17, .cls-18, .cls-19, .cls-20, .cls-21, .cls-3, .cls-4, .cls-5, .cls-6, .cls-7, .cls-9 {
        stroke-miterlimit: 10;
      }

      .cls-3 {
        stroke-width: 0.87px;
      }

      .cls-4, .cls-7 {
        stroke-width: 1.75px;
      }

      .cls-5 {
        stroke-width: 1.8px;
      }

      .cls-8 {
        fill: #3b344d;
      }

      .cls-9 {
        stroke-width: 3.14px;
      }

      .cls-10 {
        fill: #ffdafc;
      }

      .cls-11, .cls-15 {
        stroke-width: 1.57px;
      }

      .cls-12 {
        stroke-width: 3.93px;
      }

      .cls-13 {
        fill: #3d334b;
      }

      .cls-14 {
        stroke-width: 0.39px;
      }

      .cls-16 {
        stroke-width: 3px;
      }

      .cls-17 {
        stroke-width: 2.13px;
      }

      .cls-18 {
        stroke-width: 4px;
      }

      .cls-19, .cls-20, .cls-21 {
        stroke: #fff;
      }

      .cls-19 {
        stroke-width: 3.88px;
      }

      .cls-20 {
        stroke-width: 4.13px;
      }

      .cls-21 {
        stroke-width: 4.46px;
      }
    </style>
  </defs>
  <g id="margin">
    <rect class="cls-1" width="400" height="400"/>
  </g>
  <g id="mouse">
    <path class="cls-2" d="M326.41,312.06a162.79,162.79,0,0,0,18.83-23.15,169.85,169.85,0,0,0,14.33-26.16,174.92,174.92,0,0,0,9.65-28.22A172.34,172.34,0,0,0,374,205.11c.43-5,.51-9.94.52-14.91s-.29-9.94-.8-14.88-1.19-9.87-2-14.77-2-9.74-3.33-14.52a175.59,175.59,0,0,0-25.15-53.7,177.81,177.81,0,0,0-19-22.9,174.1,174.1,0,0,0-22.57-19.35,178.43,178.43,0,0,0-53.11-26.19A169,169,0,0,0,189.83,17a176,176,0,0,0-29.33,4.38A177.42,177.42,0,0,0,82.71,62.84a168.47,168.47,0,0,0-36.19,46.55c-18.48,35-24,76.36-16.11,115.06A178.47,178.47,0,0,0,89.48,324.88,170.52,170.52,0,0,0,199,365.29a.17.17,0,0,1,.17.18.17.17,0,0,1-.17.17,170,170,0,0,1-59-9.42,174.43,174.43,0,0,1-27.36-12.41,170.12,170.12,0,0,1-24.79-17.06A180.56,180.56,0,0,1,27,225.15,178.59,178.59,0,0,1,25,165a172.45,172.45,0,0,1,18.49-57.25A171.62,171.62,0,0,1,80.61,60.51a181.1,181.1,0,0,1,79.27-41.7,178.38,178.38,0,0,1,29.81-4.32,171.58,171.58,0,0,1,59.53,7.22,180.78,180.78,0,0,1,53.63,26.74,176.63,176.63,0,0,1,22.74,19.66,179.65,179.65,0,0,1,19.06,23.22,176.93,176.93,0,0,1,25.06,54.33c1.34,4.83,2.34,9.74,3.28,14.66s1.55,9.89,1.94,14.88.65,10,.72,15-.15,10-.61,15a172.89,172.89,0,0,1-5,29.55A175.49,175.49,0,0,1,360.21,263a171.07,171.07,0,0,1-14.53,26.18,163.24,163.24,0,0,1-19,23.1.18.18,0,0,1-.25-.25Z" transform="translate(0.19 -0.13)"/>
    <g>
      <line class="cls-3" x1="226.02" y1="369.07" x2="233.89" y2="378.57"/>
      <line class="cls-3" x1="226.34" y1="358.4" x2="235.31" y2="349.26"/>
      <rect class="cls-2" x="181.67" y="351.71" width="38.9" height="24" transform="translate(570.8 173.28) rotate(91.69)"/>
      <path class="cls-4" d="M190.56,384.59a36.24,36.24,0,0,1-5.32-.72,25.75,25.75,0,0,1-10-3.95,21.43,21.43,0,0,1-6-6.35,21,21,0,0,1-2.88-12,22.09,22.09,0,0,1,4.27-11.39c5.16-7,12.77-8.51,15.15-9a25.34,25.34,0,0,1,6.89-.36" transform="translate(0.19 -0.13)"/>
      <path class="cls-5" d="M213.69,344.62l-1-.45a57.6,57.6,0,0,1,11,6.2c3.16,2.27,4.77,3.46,6.14,5.63.38.59,3.67,6,1.69,12.23-1.62,5.07-5.78,7.58-9.38,9.76a30.52,30.52,0,0,1-10.23,3.86" transform="translate(0.19 -0.13)"/>
      <circle class="cls-6" cx="217.06" cy="356.23" r="1.33"/>
      <circle class="cls-6" cx="216.45" cy="370.75" r="1.33"/>
      <path class="cls-4" d="M203.56,353.38a9.64,9.64,0,0,1-3.09-.24,10.06,10.06,0,0,1-4.69-2.66,13,13,0,0,1-1-14.91,10.92,10.92,0,0,1,8.28-4.39c5.12,0,9.09,4.07,10.29,8.16a11.14,11.14,0,0,1,.11,5.62" transform="translate(0.19 -0.13)"/>
      <path class="cls-7" d="M203.11,373.3a11.12,11.12,0,0,0-11,7.12A11.21,11.21,0,0,0,194.55,392a10.65,10.65,0,0,0,7.21,3.16,10.9,10.9,0,0,0,9.73-6.31,11.32,11.32,0,0,0,.78-7.14" transform="translate(0.19 -0.13)"/>
      <line class="cls-3" x1="225.17" y1="355.14" x2="232.94" y2="341.85"/>
      <ellipse class="cls-6" cx="232.33" cy="364.41" rx="2.88" ry="1.54" transform="translate(-138.59 585.74) rotate(-88.31)"/>
      <line class="cls-3" x1="221.94" y1="355.04" x2="225.95" y2="342.84"/>
      <line class="cls-3" x1="224.66" y1="372.33" x2="231.62" y2="386.5"/>
      <line class="cls-3" x1="221.45" y1="371.74" x2="224.72" y2="384.75"/>
    </g>
    <animateTransform 
      attributeName="transform"
      type="rotate"
      from="0 200 200" to="-360 200 200"
      begin="0s" dur="10s"
      repeatCount="indefinite"
    />
  </g>
  <g id="cat">
    <g>
      <circle class="cls-1" cx="240.67" cy="215.72" r="7.99"/>
      <path class="cls-8" d="M289.47,151.11c-.56-5.4-1.25-12.74-2-23.11-3.54-64.46-53.3-.14-69.67,34.32l66.63,29.79c1.29-5,2.35-8.81,3.21-11.86a11.29,11.29,0,0,1,.49-3.31c.17-.55.34-1.11.52-1.67,0-.46,0-.92.06-1.37a38.8,38.8,0,0,1,.61-5,65.19,65.19,0,0,1,.12-17.76" transform="translate(0.19 -0.13)"/>
      <path class="cls-9" d="M289.47,151.11c-.56-5.4-1.25-12.74-2-23.11-3.54-64.46-53.3-.14-69.67,34.32l66.63,29.79c1.29-5,2.35-8.81,3.21-11.86a11.29,11.29,0,0,1,.49-3.31c.17-.55.34-1.11.52-1.67,0-.46,0-.92.06-1.37a38.8,38.8,0,0,1,.61-5A65.19,65.19,0,0,1,289.47,151.11Z" transform="translate(0.19 -0.13)"/>
      <path class="cls-8" d="M172.39,159.3a64.67,64.67,0,0,0-4.54-15.65c-4.51-10.41-10.61-16.89-17.17-23.73-4.36-4.55-11.28-12.37-21.7-18.17-2.89-1.61-6.4-3.29-9.59-2-1.31.51-2.92,1.66-6.57,9.08a71.21,71.21,0,0,0-4.54,10.6c-6.9,21.84-3.53,44.93-3.53,44.93a105.32,105.32,0,0,0,8.07,27.77" transform="translate(0.19 -0.13)"/>
      <path class="cls-9" d="M172.39,159.3a64.67,64.67,0,0,0-4.54-15.65c-4.51-10.41-10.61-16.89-17.17-23.73-4.36-4.55-11.28-12.37-21.7-18.17-2.89-1.61-6.4-3.29-9.59-2-1.31.51-2.92,1.66-6.57,9.08a71.21,71.21,0,0,0-4.54,10.6c-6.9,21.84-3.53,44.93-3.53,44.93a105.32,105.32,0,0,0,8.07,27.77" transform="translate(0.19 -0.13)"/>
      <path class="cls-10" d="M111.81,185c-5-15.3-8.51-64,6.56-82.29,10.88,13.39,30,39.64,29.29,54" transform="translate(0.19 -0.13)"/>
      <path class="cls-11" d="M111.81,185c-5-15.3-8.51-64,6.56-82.29,10.88,13.39,30,39.64,29.29,54" transform="translate(0.19 -0.13)"/>
      <path class="cls-10" d="M283.45,186.05c7.27-15.94,4.9-67.08-7.06-82.79-5.44,1.86-39.64,46.37-30.29,55" transform="translate(0.19 -0.13)"/>
      <path class="cls-11" d="M283.45,186.05c7.27-15.94,4.9-67.08-7.06-82.79-5.44,1.86-39.64,46.37-30.29,55" transform="translate(0.19 -0.13)"/>
      <path class="cls-8" d="M282.19,247.14c-19.67,29.29-61.73,28.81-91.62,29.53-58.71,1.58-117-32-77.24-93.9,49.81-63.27,217.55-28.93,168.86,64.37" transform="translate(0.19 -0.13)"/>
      <path class="cls-12" d="M282.19,247.14c-19.67,29.29-61.73,28.81-91.62,29.53-58.71,1.58-117-32-77.24-93.9C163.14,119.5,330.88,153.84,282.19,247.14Z" transform="translate(0.19 -0.13)"/>
      <path class="cls-13" d="M244.55,157.28c1.11-.17,2.73-.37,4.71-.51a26.77,26.77,0,0,1,6.23,0c3.49.53,6.34,2.09,6.23,2.53-.05.16-.45.07-2.34.46l-1.15.27s-.73.2-1.39.44c-.95.35-2.95,1.22-2.87,1.52s7.24-.17,7.24-.17,3,1.18,3.53,1.51a16.91,16.91,0,0,1,3.37,2.7c1.09,1,1.64,1.56,1.51,1.85-.26.62-2.72-.34-6.22-.17a17.83,17.83,0,0,0-4,.67" transform="translate(0.19 -0.13)"/>
      <path class="cls-11" d="M244.55,157.28c1.11-.17,2.73-.37,4.71-.51a26.77,26.77,0,0,1,6.23,0c3.49.53,6.34,2.09,6.23,2.53-.05.16-.45.07-2.34.46l-1.15.27s-.73.2-1.39.44c-.95.35-2.95,1.22-2.87,1.52s7.24-.17,7.24-.17,3,1.18,3.53,1.51a16.91,16.91,0,0,1,3.37,2.7c1.09,1,1.64,1.56,1.51,1.85-.26.62-2.72-.34-6.22-.17a17.83,17.83,0,0,0-4,.67" transform="translate(0.19 -0.13)"/>
      <path d="M199.46,230.53h.21c.54,0,1.09.08,1.63.08h.56c.39,0,.77,0,1.15,0l.24.05c.76.29,1.53.55,2.31.77.06.09.12.18.17.27v2.53a27.17,27.17,0,0,0-6,4.09c-.26.23-.51.48-.76.72h-.44v-8.48l.9,0" transform="translate(0.19 -0.13)"/>
      <path class="cls-9" d="M199.46,230.53h.21c.54,0,1.09.08,1.63.08h.56c.39,0,.77,0,1.15,0l.24.05c.76.29,1.53.55,2.31.77.06.09.12.18.17.27v2.53a27.17,27.17,0,0,0-6,4.09c-.26.23-.51.48-.76.72h-.44v-8.48Z" transform="translate(0.19 -0.13)"/>
      <path d="M222.5,218.55a32.36,32.36,0,0,1,6.06-5.9,34.4,34.4,0,0,1,7-4,39.57,39.57,0,0,1,6.91-2.06c1.69-.39,1.29-.22,6.09-1a4.36,4.36,0,0,0,.51,0,24.68,24.68,0,0,0,3.84-.28c.81,0,1.59-.06,2.35-.15h.2l.46,0a12.61,12.61,0,0,0,1.49.61,4.66,4.66,0,0,1,1.68,2.22,4.1,4.1,0,0,1-.28,3.44,3.7,3.7,0,0,1-1.55,1.37,4.81,4.81,0,0,1-2.68.28c-1.68-.17-3.38.05-5.07,0-2.88-.1-5.24,0-5.92,0-8.89.39-17.46,7.46-18.59,9.2a3.16,3.16,0,0,1-1.41,1.24,2.5,2.5,0,0,1-1.55.14,2.31,2.31,0,0,1-1.41-1c-.44-.78.06-2,1.83-4.26" transform="translate(0.19 -0.13)"/>
      <path class="cls-14" d="M222.5,218.55a32.36,32.36,0,0,1,6.06-5.9,34.4,34.4,0,0,1,7-4,39.57,39.57,0,0,1,6.91-2.06c1.69-.39,1.29-.22,6.09-1a4.36,4.36,0,0,0,.51,0,24.68,24.68,0,0,0,3.84-.28c.81,0,1.59-.06,2.35-.15h.2l.46,0a12.61,12.61,0,0,0,1.49.61,4.66,4.66,0,0,1,1.68,2.22,4.1,4.1,0,0,1-.28,3.44,3.7,3.7,0,0,1-1.55,1.37,4.81,4.81,0,0,1-2.68.28c-1.68-.17-3.38.05-5.07,0-2.88-.1-5.24,0-5.92,0-8.89.39-17.46,7.46-18.59,9.2a3.16,3.16,0,0,1-1.41,1.24,2.5,2.5,0,0,1-1.55.14,2.31,2.31,0,0,1-1.41-1C220.23,222,220.73,220.78,222.5,218.55Z" transform="translate(0.19 -0.13)"/>
      <path class="cls-15" d="M240.67,198.5a7.11,7.11,0,0,1,2.81,9.34" transform="translate(0.19 -0.13)"/>
      <path class="cls-15" d="M248.79,197.8a7.13,7.13,0,0,1,2.82,9.35" transform="translate(0.19 -0.13)"/>
      <path class="cls-15" d="M256.89,196.24a7.12,7.12,0,0,1,1.78,9.59" transform="translate(0.19 -0.13)"/>
      <path d="M198.37,230.56h-.2c-.54,0-1.09.07-1.63.07H196c-.39,0-.77,0-1.15,0l-.24,0a24.12,24.12,0,0,1-2.31.78l-.18.26v2.54a27,27,0,0,1,6,4.09c.26.23.51.47.76.72h.43v-8.49l-.9,0" transform="translate(0.19 -0.13)"/>
      <path class="cls-9" d="M198.37,230.56h-.2c-.54,0-1.09.07-1.63.07H196c-.39,0-.77,0-1.15,0l-.24,0a24.12,24.12,0,0,1-2.31.78l-.18.26v2.54a27,27,0,0,1,6,4.09c.26.23.51.47.76.72h.43v-8.49Z" transform="translate(0.19 -0.13)"/>
      <path d="M175.34,218.58a32.91,32.91,0,0,0-6.06-5.91,34.69,34.69,0,0,0-7.05-4,38.63,38.63,0,0,0-6.9-2.06c-1.7-.39-1.3-.22-6.09-1l-.52,0a23.65,23.65,0,0,1-3.84-.29c-.8,0-1.59-.06-2.34-.14h-.2l-.46,0a13.26,13.26,0,0,1-1.49.6,4.64,4.64,0,0,0-1.69,2.23,4.14,4.14,0,0,0,.29,3.43,3.7,3.7,0,0,0,1.55,1.38,4.77,4.77,0,0,0,2.67.27c1.69-.16,3.39.06,5.08,0,2.88-.09,5.24,0,5.91,0,8.89.39,17.46,7.47,18.6,9.21a3.22,3.22,0,0,0,1.41,1.24,2.61,2.61,0,0,0,1.55.13,2.3,2.3,0,0,0,1.41-1c.44-.78-.07-2-1.83-4.26" transform="translate(0.19 -0.13)"/>
      <path class="cls-14" d="M175.34,218.58a32.91,32.91,0,0,0-6.06-5.91,34.69,34.69,0,0,0-7.05-4,38.63,38.63,0,0,0-6.9-2.06c-1.7-.39-1.3-.22-6.09-1l-.52,0a23.65,23.65,0,0,1-3.84-.29c-.8,0-1.59-.06-2.34-.14h-.2l-.46,0a13.26,13.26,0,0,1-1.49.6,4.64,4.64,0,0,0-1.69,2.23,4.14,4.14,0,0,0,.29,3.43,3.7,3.7,0,0,0,1.55,1.38,4.77,4.77,0,0,0,2.67.27c1.69-.16,3.39.06,5.08,0,2.88-.09,5.24,0,5.91,0,8.89.39,17.46,7.47,18.6,9.21a3.22,3.22,0,0,0,1.41,1.24,2.61,2.61,0,0,0,1.55.13,2.3,2.3,0,0,0,1.41-1C177.61,222.06,177.1,220.81,175.34,218.58Z" transform="translate(0.19 -0.13)"/>
      <path class="cls-15" d="M157.17,198.52a7.13,7.13,0,0,0-2.82,9.35" transform="translate(0.19 -0.13)"/>
      <path class="cls-15" d="M149.05,197.83a7.12,7.12,0,0,0-2.82,9.34" transform="translate(0.19 -0.13)"/>
      <path class="cls-15" d="M141,196.27a7.31,7.31,0,0,0-2.58,3.6,7.43,7.43,0,0,0,.8,6" transform="translate(0.19 -0.13)"/>
      <path class="cls-8" d="M154.44,157.55c-1.1-.16-2.73-.37-4.71-.51a27.25,27.25,0,0,0-6.22,0c-3.5.54-6.34,2.09-6.23,2.53,0,.16.45.07,2.33.46.46.1.81.18,1.15.27,0,0,.74.2,1.4.45.94.34,3,1.22,2.86,1.51s-7.24-.17-7.24-.17-2.95,1.18-3.53,1.52a16.8,16.8,0,0,0-3.37,2.69c-1.09,1-1.63,1.57-1.51,1.85.27.62,2.72-.34,6.23-.17a17.94,17.94,0,0,1,4,.67" transform="translate(0.19 -0.13)"/>
      <path class="cls-11" d="M154.44,157.55c-1.1-.16-2.73-.37-4.71-.51a27.25,27.25,0,0,0-6.22,0c-3.5.54-6.34,2.09-6.23,2.53,0,.16.45.07,2.33.46.46.1.81.18,1.15.27,0,0,.74.2,1.4.45.94.34,3,1.22,2.86,1.51s-7.24-.17-7.24-.17-2.95,1.18-3.53,1.52a16.8,16.8,0,0,0-3.37,2.69c-1.09,1-1.63,1.57-1.51,1.85.27.62,2.72-.34,6.23-.17a17.94,17.94,0,0,1,4,.67" transform="translate(0.19 -0.13)"/>
      <rect class="cls-8" x="213.65" y="156.1" width="29.15" height="15.85" transform="translate(-18.06 298.96) rotate(-64.43)"/>
      <rect class="cls-8" x="153.27" y="146.68" width="19.6" height="28.64" transform="translate(-54.67 90.01) rotate(-26.62)"/>
      <path class="cls-8" d="M248.84,158.9c4.62,5.3,11.18,8.15,9.91,10.7s-7.76,1.89-14.51-1.48-11.34-8.23-9.91-10.7c1.67-2.87,10-3.71,14.51,1.48" transform="translate(0.19 -0.13)"/>
      <path class="cls-2" d="M264.5,215A24.5,24.5,0,1,1,240,190.5,24.5,24.5,0,0,1,264.5,215" transform="translate(0.19 -0.13)"/>
      <circle class="cls-16" cx="240.18" cy="214.87" r="24.5"/>
      <path d="M254.81,215.56a16.29,16.29,0,1,1-16.29-16.29,16.29,16.29,0,0,1,16.29,16.29" transform="translate(0.19 -0.13)"/>
      <path class="cls-17" d="M254.81,215.56a16.29,16.29,0,1,1-16.29-16.29A16.29,16.29,0,0,1,254.81,215.56Z" transform="translate(0.19 -0.13)"/>
      <path d="M140.65,180.49a15.08,15.08,0,0,0,3.45,6.23c.79.86,1.85,1.35,2.58,2.2a23,23,0,0,1,2.38,2.94.18.18,0,0,1-.06.25l-.06,0a5,5,0,0,1-2.15-.07,6.73,6.73,0,0,1-1.95-.77,8,8,0,0,1-2.66-3.15,12.48,12.48,0,0,1-1.54-3.73,13,13,0,0,1-.29-3.91.15.15,0,0,1,.16-.13.15.15,0,0,1,.14.11" transform="translate(0.19 -0.13)"/>
      <path d="M150.65,179a28.89,28.89,0,0,0,.53,3.55,33.5,33.5,0,0,0,.89,3.38,21.2,21.2,0,0,1,1.22,3.2,12.18,12.18,0,0,1,.19,3.74.19.19,0,0,1-.21.16l-.06,0a5.75,5.75,0,0,1-1.62-1.27,7.26,7.26,0,0,1-1.12-1.59,9.16,9.16,0,0,1-.75-3.74,19.8,19.8,0,0,1,0-3.77,20.19,20.19,0,0,1,.67-3.66.16.16,0,0,1,.19-.11.16.16,0,0,1,.11.13" transform="translate(0.19 -0.13)"/>
      <path d="M161.61,179.6a15.69,15.69,0,0,0-1.48,3.1,15.28,15.28,0,0,0-.8,3.18,7.9,7.9,0,0,0,0,1.61,6.84,6.84,0,0,1-.11,1.57c-.11.52-.23,1.06-.39,1.62a11,11,0,0,1-.65,1.79h0a.17.17,0,0,1-.24.08.09.09,0,0,1-.05,0,5.67,5.67,0,0,1-1.67-3.54,7.47,7.47,0,0,1,.83-3.73,13.06,13.06,0,0,1,1.8-3.28,13.41,13.41,0,0,1,2.58-2.58.15.15,0,0,1,.21,0,.15.15,0,0,1,0,.17" transform="translate(0.19 -0.13)"/>
      <path class="cls-2" d="M133.82,214.87a24.5,24.5,0,1,0,24.5-24.5,24.5,24.5,0,0,0-24.5,24.5" transform="translate(0.19 -0.13)"/>
      <circle class="cls-16" cx="158.51" cy="214.74" r="24.5"/>
      <path d="M143.51,215.43a16.29,16.29,0,1,0,16.28-16.29,16.28,16.28,0,0,0-16.28,16.29" transform="translate(0.19 -0.13)"/>
      <circle class="cls-17" cx="159.79" cy="215.43" r="16.29" transform="translate(-55.38 55.42) rotate(-16.85)"/>
      <path d="M260.05,182.11a13,13,0,0,1-1.18,3.73,12.37,12.37,0,0,1-2.36,3.28,7.83,7.83,0,0,1-3.32,2.45,6.53,6.53,0,0,1-2.07.31,5,5,0,0,1-2.11-.43.18.18,0,0,1-.09-.24l0-.06a22.9,22.9,0,0,1,3-2.31c.91-.66,2.05-.9,3-1.55a14.67,14.67,0,0,0,2.66-2.29,15.48,15.48,0,0,0,2.14-3,.15.15,0,0,1,.28.09" transform="translate(0.19 -0.13)"/>
      <path d="M250.67,178.32a19.48,19.48,0,0,1-1.1,7.38,9.09,9.09,0,0,1-1.59,3.47,7.22,7.22,0,0,1-1.46,1.29,5.45,5.45,0,0,1-1.87.86.2.2,0,0,1-.22-.13v-.07a11.77,11.77,0,0,1,1-3.59,20.83,20.83,0,0,1,1.92-2.84,33.42,33.42,0,0,0,1.65-3.08,29.62,29.62,0,0,0,1.33-3.33.16.16,0,0,1,.2-.09.14.14,0,0,1,.1.13" transform="translate(0.19 -0.13)"/>
      <path d="M239.83,176.19a12.92,12.92,0,0,1,2.91,6.71,7.49,7.49,0,0,1-.05,3.82,5.66,5.66,0,0,1-2.44,3.06.18.18,0,0,1-.25-.07l0-.05h0a11.36,11.36,0,0,1-.21-1.89,15.4,15.4,0,0,1,0-1.66,6.78,6.78,0,0,1,.25-1.55,7.79,7.79,0,0,0,.33-1.58,15.67,15.67,0,0,0,0-3.28,16.17,16.17,0,0,0-.73-3.36.15.15,0,0,1,.1-.19.14.14,0,0,1,.16.05" transform="translate(0.19 -0.13)"/>
      <path d="M268,237c3.06-1.23,6.16-2.34,9.27-3.45s6.24-2.19,9.41-3.09A164.31,164.31,0,0,1,306,225.74c3.28-.53,6.59-1,9.91-1.2s6.65-.33,10-.2A91.5,91.5,0,0,1,345.5,227c-6.6-.38-13.14-.56-19.65-.32-3.26.15-6.51.33-9.74.69s-6.45.76-9.65,1.33-6.4,1.18-9.6,1.87-6.38,1.45-9.59,2.15-6.4,1.49-9.6,2.23S271.26,236.4,268,237" transform="translate(0.19 -0.13)"/>
      <path d="M263,247a93.69,93.69,0,0,1,10.44,2,96.53,96.53,0,0,1,10.19,3,38.47,38.47,0,0,1,5,2.13,22,22,0,0,1,4.51,3.23A25.72,25.72,0,0,1,299.5,266a53.24,53.24,0,0,0-7.82-6.85,31.59,31.59,0,0,0-4.31-2.52c-1.5-.68-3.13-1.27-4.76-1.85-3.27-1.17-6.58-2.34-9.87-3.59A96.51,96.51,0,0,1,263,247" transform="translate(0.19 -0.13)"/>
      <path d="M130,236.5c-5.47-1.31-10.89-2.57-16.33-3.62-2.72-.47-5.45-.93-8.21-1.3s-5.5-.78-8.26-1.11l-16.58-2.12c-5.54-.71-11.07-1.43-16.62-2.35a157.47,157.47,0,0,1,16.83,0c2.8.11,5.59.36,8.39.58s5.58.57,8.37.9a133.56,133.56,0,0,1,16.6,3.11A90.48,90.48,0,0,1,130,236.5" transform="translate(0.19 -0.13)"/>
      <path d="M135.5,247c-3.34.86-6.59,1.71-9.75,2.77a84.78,84.78,0,0,0-9.22,3.69,82.85,82.85,0,0,0-8.72,4.76C105,260,102.28,262,99.5,264a34,34,0,0,1,6.94-7.68,41,41,0,0,1,8.81-5.58,41.8,41.8,0,0,1,9.91-3.23A34.54,34.54,0,0,1,135.5,247" transform="translate(0.19 -0.13)"/>
      <g>
        <path class="cls-18" d="M198.56,236a20,20,0,0,0,3.94,9,20.9,20.9,0,0,0,13,7.5" transform="translate(0.19 -0.13)"/>
        <path class="cls-18" d="M198.62,235.81a20,20,0,0,1-3.93,9,21,21,0,0,1-13,7.5" transform="translate(0.19 -0.13)"/>
      </g>
    </g>
    <circle class="cls-19" cx="245.39" cy="208.27" r="5.23"/>
    <circle class="cls-19" cx="168.49" cy="209.2" r="5.23"/>
    <ellipse class="cls-20" cx="159.06" cy="215.05" rx="19.37" ry="16.66"/>
    <circle class="cls-21" cx="240.51" cy="214.16" r="19.37"/>
  </g>
  <g id="inner_margin">
    <rect class="cls-1" x="51.39" y="40.34" width="300" height="300"/>
  </g>
  <g id="left_eye">
    <ellipse cx="160.62" cy="223.82" rx="10.9" ry="10.66"/>
    <circle class="cls-2" cx="159.62" cy="227.71" r="3.46"/>
    <animateTransform 
      attributeName="transform"
      type="rotate"
      from="0 160 225" to="-360 160 210"
      begin="0s" dur="10s"
      repeatCount="indefinite"
    />
  </g>
  <g id="right_eye">
    <ellipse cx="240.72" cy="224.64" rx="10.9" ry="10.66"/>
    <circle class="cls-2" cx="240.45" cy="227.71" r="3.46"/>
    <animateTransform 
      attributeName="transform"
      type="rotate"
      from="0 240 225" to="-360 240 210"
      begin="0s" dur="10s"
      repeatCount="indefinite"
    />
  </g>
</svg>
