<svg xmlns="http://www.w3.org/2000/svg" viewBox="0 0 302.68 328.95">
  <defs>
    <style>
      .cls-1, .cls-19, .cls-20, .cls-21, .cls-3, .cls-4, .cls-6 {
        fill: #fff;
      }

      .cls-10, .cls-12, .cls-13, .cls-15, .cls-16, .cls-17, .cls-18, .cls-2, .cls-8 {
        fill: none;
      }

      .cls-10, .cls-12, .cls-13, .cls-15, .cls-16, .cls-17, .cls-18, .cls-2, .cls-3, .cls-4, .cls-5, .cls-6, .cls-7 {
        stroke: #000;
      }

      .cls-15, .cls-16, .cls-18, .cls-19, .cls-2, .cls-20, .cls-21, .cls-6 {
        stroke-linecap: round;
      }

      .cls-10, .cls-12, .cls-13, .cls-15, .cls-16, .cls-17, .cls-18, .cls-19, .cls-2, .cls-20, .cls-21, .cls-3, .cls-4, .cls-5, .cls-6 {
        stroke-miterlimit: 10;
      }

      .cls-2 {
        stroke-width: 0.87px;
      }

      .cls-3, .cls-6 {
        stroke-width: 1.75px;
      }

      .cls-4 {
        stroke-width: 1.8px;
      }

      .cls-7 {
        stroke-miterlimit: 10;
      }

      .cls-9 {
        fill: #3b344d;
      }

      .cls-10 {
        stroke-width: 3.14px;
      }

      .cls-11 {
        fill: #ffdafc;
      }

      .cls-12, .cls-16 {
        stroke-width: 1.57px;
      }

      .cls-13 {
        stroke-width: 3.93px;
      }

      .cls-14 {
        fill: #3d334b;
      }

      .cls-15 {
        stroke-width: 0.39px;
      }

      .cls-17 {
        stroke-width: 3px;
      }

      .cls-18 {
        stroke-width: 4px;
      }

      .cls-19, .cls-20, .cls-21 {
        stroke: #fff;
      }

      .cls-19 {
        stroke-width: 3.88px;
      }

      .cls-20 {
        stroke-width: 4.13px;
      }

      .cls-21 {
        stroke-width: 4.46px;
      }
    </style>
  </defs>
  <g id="rat">
    <g>
      <g id="ab4e147d-1bfa-4389-95c5-b179ad959a56">
        <g id="b0bd6bcd-363d-4c4f-a102-b8a18c7e46d2">
          <path class="cls-1" d="M182.48,299.53a159.82,159.82,0,0,1-47.75,2.8,149.55,149.55,0,0,1-23.66-4.28c-3.85-1.08-7.73-2.2-11.49-3.64L94,292.13l-1.4-.57-1.36-.64-2.75-1.28c-3.66-1.62-7.15-3.64-10.7-5.55-1.75-1-3.44-2.06-5.17-3.09l-2.58-1.53c-.85-.53-1.67-1.12-2.5-1.68l-5-3.4-4.79-3.66c-.8-.63-1.62-1.2-2.38-1.86l-2.29-1.95L50.81,265c-.77-.66-1.54-1.3-2.26-2l-4.36-4.17c-.75-.68-1.44-1.41-2.12-2.15L40,254.44c-2.83-2.87-5.29-6.07-7.9-9.14l-3.6-4.86c-.59-.81-1.22-1.6-1.78-2.45l-1.65-2.53-1.66-2.53c-.54-.85-1.12-1.67-1.61-2.56l-3-5.26-.75-1.31-.68-1.36-1.34-2.72c-.88-1.81-1.83-3.59-2.56-5.48l-2.38-5.58c-.71-1.89-1.35-3.8-2-5.71a153.35,153.35,0,0,1-6.23-23.37c-.77-4-1.29-8-1.82-12a117,117,0,0,1-1-12.11A136,136,0,0,1,1.6,131.32,151.82,151.82,0,0,1,28.29,64.4c1.17-1.65,2.35-3.3,3.59-4.88l1.85-2.4,2-2.35c1.26-1.57,2.6-3.06,3.89-4.61s2.75-3,4.15-4.43C66.17,22.5,96.26,6.47,128.29,1.7a150.06,150.06,0,0,1,48.27.53A157.84,157.84,0,0,1,200,8.18c1.92.62,3.82,1.34,5.71,2.05s3.72,1.58,5.58,2.38c3.67,1.66,7.31,3.4,10.85,5.32C250.62,33,274.46,57.05,288.06,86.28a160.24,160.24,0,0,1,13.39,46.06,150.17,150.17,0,0,1,1.15,24,143.16,143.16,0,0,1-2.8,23.79,149.76,149.76,0,0,0,.63-47.62,158.79,158.79,0,0,0-14.09-45.38l-2.67-5.33-2.87-5.19c-2.08-3.4-4.24-6.69-6.55-9.92a150.12,150.12,0,0,0-15.33-18.16A152.18,152.18,0,0,0,220.78,20.6c-3.51-1.83-7.09-3.51-10.72-5.1-1.83-.75-3.62-1.58-5.46-2.26s-3.71-1.35-5.6-1.93a155.62,155.62,0,0,0-23-5.72,146.1,146.1,0,0,0-47.17-.35C97.62,10,68.39,25.74,46.51,48.48c-1.35,1.42-2.78,2.79-4.06,4.3s-2.61,2.94-3.89,4.48l-1.89,2.28-1.81,2.34c-1.23,1.54-2.38,3.15-3.53,4.75A148.43,148.43,0,0,0,5,131.88a134.9,134.9,0,0,0-1.61,23.58,110.25,110.25,0,0,0,.93,11.76c.52,4,1,7.88,1.74,11.76a156.09,156.09,0,0,0,6,22.92c.65,1.87,1.25,3.75,1.94,5.61L16.28,213c.7,1.84,1.6,3.6,2.46,5.38L20,221.05l.64,1.33.71,1.31,2.94,5.16c.45.88,1,1.69,1.54,2.53l1.59,2.51,1.6,2.5c.53.83,1.14,1.6,1.71,2.42l3.48,4.8c2.54,3,4.91,6.21,7.67,9.06L44,254.86c.66.74,1.34,1.47,2.06,2.14l4.26,4.15c.68.71,1.44,1.34,2.18,2l2.24,1.94,2.25,2c.74.66,1.55,1.23,2.31,1.86l4.69,3.66L68.77,276c.82.56,1.61,1.15,2.45,1.68l2.53,1.58c1.69,1,3.35,2.13,5.07,3.11,3.48,1.92,6.92,3.9,10.52,5.57L92,289.25l1.34.66,1.36.59,5.47,2.35c3.67,1.49,7.46,2.65,11.27,3.8a147.23,147.23,0,0,0,47.24,5.51A177.59,177.59,0,0,0,182.48,299.53Z"/>
        </g>
      </g>
      <line class="cls-2" x1="180.13" y1="302.11" x2="187.99" y2="311.61"/>
      <line class="cls-2" x1="180.44" y1="291.45" x2="189.42" y2="282.3"/>
      <rect class="cls-1" x="135.96" y="284.64" width="38.9" height="24" transform="translate(-145.68 443.24) rotate(-88.31)"/>
      <path class="cls-3" d="M144.84,317.5a31.54,31.54,0,0,1-5.31-.72,25.45,25.45,0,0,1-10-3.94,21.54,21.54,0,0,1-6-6.36,20.94,20.94,0,0,1-2.87-12,21.93,21.93,0,0,1,4.27-11.39c5.16-7,12.77-8.51,15.15-9a26.5,26.5,0,0,1,6.89-.36"/>
      <path class="cls-4" d="M168,277.54l-1-.46a59.84,59.84,0,0,1,11,6.2c3.16,2.28,4.77,3.46,6.14,5.63.37.6,3.67,6,1.69,12.24-1.62,5.07-5.78,7.58-9.38,9.76a30.36,30.36,0,0,1-10.23,3.85"/>
      <circle class="cls-5" cx="171.17" cy="289.28" r="1.33"/>
      <circle class="cls-5" cx="170.56" cy="303.79" r="1.33"/>
      <path class="cls-3" d="M157.84,286.29a9.64,9.64,0,0,1-3.08-.23,9.94,9.94,0,0,1-4.7-2.67,13,13,0,0,1-1-14.91c.22-.3,3.21-4.36,8.27-4.39s9.09,4.07,10.29,8.17a11.15,11.15,0,0,1,.12,5.62"/>
      <path class="cls-6" d="M157.39,306.22a11.11,11.11,0,0,0-11,7.1,11.14,11.14,0,0,0,2.47,11.59,10.5,10.5,0,0,0,7.21,3.16,10.91,10.91,0,0,0,9.73-6.31,11.38,11.38,0,0,0,.77-7.14"/>
      <line class="cls-2" x1="179.27" y1="288.18" x2="187.04" y2="274.9"/>
      <ellipse class="cls-7" cx="186.61" cy="297.31" rx="2.88" ry="1.54" transform="translate(-116.08 475.07) rotate(-88.31)"/>
      <line class="cls-2" x1="176.05" y1="288.09" x2="180.06" y2="275.88"/>
      <line class="cls-2" x1="178.77" y1="305.37" x2="185.72" y2="319.55"/>
      <line class="cls-2" x1="175.55" y1="304.78" x2="178.82" y2="317.8"/>
    </g>
  </g>
  <g id="cat">
    <g id="abec59ef-d3f3-4000-a090-40a8538eb4dd">
      <g>
        <circle class="cls-8" cx="197" cy="178.2" r="7.99"/>
        <path class="cls-9" d="M246,113.46c-.57-5.4-1.25-12.74-2-23.11-3.53-64.46-53.3-.14-69.67,34.32L241,154.46c1.28-5,2.34-8.81,3.2-11.86a11,11,0,0,1,.49-3.31c.17-.55.35-1.11.52-1.67a10.39,10.39,0,0,1,.06-1.37,38.55,38.55,0,0,1,.61-5,64.81,64.81,0,0,1,.13-17.76"/>
        <path class="cls-10" d="M246,113.46c-.57-5.4-1.25-12.74-2-23.11-3.53-64.46-53.3-.14-69.67,34.32L241,154.46c1.28-5,2.34-8.81,3.2-11.86a11,11,0,0,1,.49-3.31c.17-.55.35-1.11.52-1.67a10.39,10.39,0,0,1,.06-1.37,38.55,38.55,0,0,1,.61-5A64.64,64.64,0,0,1,246,113.46Z"/>
        <path class="cls-9" d="M128.91,121.64A65.68,65.68,0,0,0,124.36,106c-4.51-10.41-10.61-16.89-17.16-23.73-4.37-4.56-11.29-12.37-21.69-18.18-2.89-1.6-6.4-3.28-9.59-2-1.31.52-2.91,1.67-6.56,9.09a69.77,69.77,0,0,0-4.55,10.6c-6.9,21.84-3.53,44.93-3.53,44.93a105,105,0,0,0,8.08,27.77"/>
        <path class="cls-10" d="M128.91,121.64A65.68,65.68,0,0,0,124.36,106c-4.51-10.41-10.61-16.89-17.16-23.73-4.37-4.56-11.29-12.37-21.69-18.18-2.89-1.6-6.4-3.28-9.59-2-1.31.52-2.91,1.67-6.56,9.09a69.77,69.77,0,0,0-4.55,10.6c-6.9,21.84-3.53,44.93-3.53,44.93a105,105,0,0,0,8.08,27.77"/>
        <path class="cls-11" d="M68.33,147.35c-5-15.3-8.52-64,6.56-82.29,10.87,13.39,30,39.64,29.28,54"/>
        <path class="cls-12" d="M68.33,147.35c-5-15.3-8.52-64,6.56-82.29,10.87,13.39,30,39.64,29.28,54"/>
        <path class="cls-11" d="M240,148.4c7.26-15.94,4.89-67.08-7.07-82.79-5.44,1.86-39.63,46.37-30.29,55"/>
        <path class="cls-12" d="M240,148.4c7.26-15.94,4.89-67.08-7.07-82.79-5.44,1.86-39.63,46.37-30.29,55"/>
        <path class="cls-9" d="M238.71,209.48C219,238.77,177,238.3,147.08,239c-58.71,1.58-117-32-77.24-93.9,49.81-63.27,217.55-28.93,168.87,64.36"/>
        <path class="cls-13" d="M238.71,209.48C219,238.77,177,238.3,147.08,239c-58.71,1.58-117-32-77.24-93.9C119.65,81.85,287.39,116.19,238.71,209.48Z"/>
        <path class="cls-14" d="M201.06,119.63c1.11-.17,2.74-.37,4.71-.51a27,27,0,0,1,6.23,0c3.5.53,6.34,2.09,6.23,2.52,0,.16-.45.08-2.34.47l-1.14.27s-.74.2-1.4.44c-.94.35-3,1.22-2.86,1.52s7.23-.17,7.23-.17,3,1.17,3.54,1.51a17.85,17.85,0,0,1,3.36,2.7c1.09,1,1.64,1.56,1.52,1.85-.27.62-2.73-.34-6.23-.17a18.58,18.58,0,0,0-4,.67"/>
        <path class="cls-12" d="M201.06,119.63c1.11-.17,2.74-.37,4.71-.51a27,27,0,0,1,6.23,0c3.5.53,6.34,2.09,6.23,2.52,0,.16-.45.08-2.34.47l-1.14.27s-.74.2-1.4.44c-.94.35-3,1.22-2.86,1.52s7.23-.17,7.23-.17,3,1.17,3.54,1.51a17.85,17.85,0,0,1,3.36,2.7c1.09,1,1.64,1.56,1.52,1.85-.27.62-2.73-.34-6.23-.17a18.58,18.58,0,0,0-4,.67"/>
        <path d="M156,192.88h.2c.54,0,1.09.08,1.63.08h1.71l.24,0c.76.29,1.53.55,2.31.77l.18.27v2.53a27.08,27.08,0,0,0-6,4.09c-.26.23-.51.48-.76.72h-.43v-8.48h.9"/>
        <path class="cls-10" d="M156,192.88h.2c.54,0,1.09.08,1.63.08h1.71l.24,0c.76.29,1.53.55,2.31.77l.18.27v2.53a27.08,27.08,0,0,0-6,4.09c-.26.23-.51.48-.76.72h-.43v-8.48Z"/>
        <path d="M179,180.9a32.57,32.57,0,0,1,6.06-5.9,35,35,0,0,1,7.05-4,40.27,40.27,0,0,1,6.9-2.06c1.7-.39,1.3-.22,6.09-1h.52a23.43,23.43,0,0,0,3.83-.28,19.75,19.75,0,0,0,2.35-.15h.66a11.36,11.36,0,0,0,1.49.61,4.82,4.82,0,0,1,1.69,2.22,4.18,4.18,0,0,1-.29,3.44,3.73,3.73,0,0,1-1.55,1.37,4.7,4.7,0,0,1-2.67.28c-1.69-.17-3.39,0-5.08,0-2.88-.1-5.24,0-5.91,0-8.9.39-17.46,7.46-18.6,9.2a3.19,3.19,0,0,1-1.41,1.24,2.43,2.43,0,0,1-1.55.14,2.22,2.22,0,0,1-1.41-1c-.44-.78.07-2,1.83-4.26"/>
        <path class="cls-15" d="M179,180.9a32.57,32.57,0,0,1,6.06-5.9,35,35,0,0,1,7.05-4,40.27,40.27,0,0,1,6.9-2.06c1.7-.39,1.3-.22,6.09-1h.52a23.43,23.43,0,0,0,3.83-.28,19.75,19.75,0,0,0,2.35-.15h.66a11.36,11.36,0,0,0,1.49.61,4.82,4.82,0,0,1,1.69,2.22,4.18,4.18,0,0,1-.29,3.44,3.73,3.73,0,0,1-1.55,1.37,4.7,4.7,0,0,1-2.67.28c-1.69-.17-3.39,0-5.08,0-2.88-.1-5.24,0-5.91,0-8.9.39-17.46,7.46-18.6,9.2a3.19,3.19,0,0,1-1.41,1.24,2.43,2.43,0,0,1-1.55.14,2.22,2.22,0,0,1-1.41-1C176.74,184.35,177.25,183.13,179,180.9Z"/>
        <path class="cls-16" d="M197.18,160.85a7.12,7.12,0,0,1,2.82,9.34"/>
        <path class="cls-16" d="M205.3,160.15a7.09,7.09,0,0,1,2.86,9.35"/>
        <path class="cls-16" d="M213.4,158.59a7.13,7.13,0,0,1,1.78,9.59"/>
        <path d="M154.89,192.91h-.21c-.54,0-1.09.07-1.63.07h-1.93a24.12,24.12,0,0,1-2.31.78c-.06.09-.12.17-.17.26v2.54a27.55,27.55,0,0,1,6,4.09c.26.23.51.47.76.72h.44v-8.49h-.9"/>
        <path class="cls-10" d="M154.89,192.91h-.21c-.54,0-1.09.07-1.63.07h-1.93a24.12,24.12,0,0,1-2.31.78c-.06.09-.12.17-.17.26v2.54a27.55,27.55,0,0,1,6,4.09c.26.23.51.47.76.72h.44v-8.49Z"/>
        <path d="M131.85,180.93a32.93,32.93,0,0,0-6.06-5.91,34.91,34.91,0,0,0-7-4,38.91,38.91,0,0,0-6.91-2.06c-1.69-.39-1.29-.22-6.09-1h-.51a22.42,22.42,0,0,1-3.84-.29,22.31,22.31,0,0,1-2.35-.14h-.66a10.54,10.54,0,0,1-1.49.6,4.7,4.7,0,0,0-1.68,2.23,4,4,0,0,0,.28,3.43,3.63,3.63,0,0,0,1.55,1.38,4.73,4.73,0,0,0,2.68.27c1.68-.16,3.38.06,5.07,0,2.88-.09,5.24,0,5.92,0,8.89.39,17.46,7.47,18.59,9.21a3.09,3.09,0,0,0,1.41,1.24,2.57,2.57,0,0,0,1.55.13,2.28,2.28,0,0,0,1.41-1c.44-.78-.06-2-1.83-4.26"/>
        <path class="cls-15" d="M131.85,180.93a32.93,32.93,0,0,0-6.06-5.91,34.91,34.91,0,0,0-7-4,38.91,38.91,0,0,0-6.91-2.06c-1.69-.39-1.29-.22-6.09-1h-.51a22.42,22.42,0,0,1-3.84-.29,22.31,22.31,0,0,1-2.35-.14h-.66a10.54,10.54,0,0,1-1.49.6,4.7,4.7,0,0,0-1.68,2.23,4,4,0,0,0,.28,3.43,3.63,3.63,0,0,0,1.55,1.38,4.73,4.73,0,0,0,2.68.27c1.68-.16,3.38.06,5.07,0,2.88-.09,5.24,0,5.92,0,8.89.39,17.46,7.47,18.59,9.21a3.09,3.09,0,0,0,1.41,1.24,2.57,2.57,0,0,0,1.55.13,2.28,2.28,0,0,0,1.41-1C134.12,184.41,133.62,183.16,131.85,180.93Z"/>
        <path class="cls-16" d="M113.68,160.87a7.13,7.13,0,0,0-2.81,9.35"/>
        <path class="cls-16" d="M105.56,160.18a7.12,7.12,0,0,0-2.82,9.34"/>
        <path class="cls-16" d="M97.51,158.61a7.12,7.12,0,0,0-1.78,9.6"/>
        <path class="cls-9" d="M111,119.9c-1.11-.16-2.74-.37-4.72-.51a28.12,28.12,0,0,0-6.22,0c-3.5.54-6.34,2.09-6.23,2.53,0,.16.45.07,2.34.46l1.14.27s.74.2,1.4.45c.94.34,3,1.22,2.86,1.51s-7.23-.17-7.23-.17-3,1.18-3.54,1.52a17.11,17.11,0,0,0-3.36,2.69c-1.09,1-1.64,1.57-1.52,1.85.27.62,2.73-.34,6.23-.17a18.79,18.79,0,0,1,4,.67"/>
        <path class="cls-12" d="M111,119.9c-1.11-.16-2.74-.37-4.72-.51a28.12,28.12,0,0,0-6.22,0c-3.5.54-6.34,2.09-6.23,2.53,0,.16.45.07,2.34.46l1.14.27s.74.2,1.4.45c.94.34,3,1.22,2.86,1.51s-7.23-.17-7.23-.17-3,1.18-3.54,1.52a17.11,17.11,0,0,0-3.36,2.69c-1.09,1-1.64,1.57-1.52,1.85.27.62,2.73-.34,6.23-.17a18.79,18.79,0,0,1,4,.67"/>
        <rect class="cls-9" x="170.16" y="118.43" width="29.15" height="15.85" transform="translate(-8.98 238.46) rotate(-64.43)"/>
        <rect class="cls-9" x="109.79" y="109.03" width="19.6" height="28.64" transform="translate(-42.59 66.66) rotate(-26.62)"/>
        <path class="cls-9" d="M205.35,121.25c4.62,5.3,11.19,8.15,9.92,10.7s-7.77,1.88-14.52-1.48-11.34-8.23-9.91-10.7c1.68-2.87,10-3.71,14.51,1.48"/>
        <path class="cls-1" d="M221,177.35a24.5,24.5,0,1,1-24.5-24.5,24.49,24.49,0,0,1,24.5,24.5h0"/>
        <circle class="cls-17" cx="196.51" cy="177.35" r="24.5"/>
        <path d="M97.16,142.84a14.18,14.18,0,0,0,1.4,3.39,13.38,13.38,0,0,0,2.06,2.84c.79.86,1.84,1.35,2.57,2.2a23.9,23.9,0,0,1,2.38,2.94.2.2,0,0,1,0,.25h-.07a4.87,4.87,0,0,1-2.15-.07,6.4,6.4,0,0,1-1.94-.77,7.77,7.77,0,0,1-2.67-3.15,12.07,12.07,0,0,1-1.54-3.73,12.83,12.83,0,0,1-.29-3.91.15.15,0,0,1,.15-.15.15.15,0,0,1,.15.15h0"/>
        <path d="M107.16,141.35a28.14,28.14,0,0,0,.53,3.55,32.33,32.33,0,0,0,.9,3.38,22.11,22.11,0,0,1,1.21,3.2,12.06,12.06,0,0,1,.19,3.74.19.19,0,0,1-.2.17h-.06a5.44,5.44,0,0,1-1.63-1.27,6.81,6.81,0,0,1-1.12-1.59,9.05,9.05,0,0,1-.74-3.74,19.79,19.79,0,0,1,0-3.77,19.13,19.13,0,0,1,.66-3.66.15.15,0,0,1,.3,0"/>
        <path d="M118.12,142a15.74,15.74,0,0,0-1.48,3.1,16.83,16.83,0,0,0-.8,3.18,7.22,7.22,0,0,0,0,1.61,7.45,7.45,0,0,1-.11,1.57,14.7,14.7,0,0,1-.39,1.62,11.88,11.88,0,0,1-.64,1.79h0a.17.17,0,0,1-.23.09h-.06a5.64,5.64,0,0,1-1.67-3.54,7.47,7.47,0,0,1,.83-3.73,13.06,13.06,0,0,1,4.38-5.86.17.17,0,0,1,.21,0,.17.17,0,0,1,0,.17"/>
        <path class="cls-1" d="M90.33,177.22a24.5,24.5,0,1,0,24.5-24.5h0a24.5,24.5,0,0,0-24.5,24.5"/>
        <circle class="cls-17" cx="114.84" cy="177.21" r="24.5"/>
        <path d="M216.56,144.46a13.09,13.09,0,0,1-1.18,3.73,12.77,12.77,0,0,1-2.35,3.28,8,8,0,0,1-3.32,2.45,6.34,6.34,0,0,1-2.07.31,4.78,4.78,0,0,1-2.11-.43.18.18,0,0,1-.09-.24.06.06,0,0,1,0-.06,22.56,22.56,0,0,1,3-2.31c.91-.66,2.05-.9,3-1.55a15,15,0,0,0,4.8-5.29.18.18,0,0,1,.28.15"/>
        <path d="M207.18,140.67a21,21,0,0,1-.19,3.72,21.76,21.76,0,0,1-.91,3.66,9.07,9.07,0,0,1-1.59,3.47,7.15,7.15,0,0,1-1.46,1.29,5.3,5.3,0,0,1-1.87.86.18.18,0,0,1-.22-.13v-.07a11.86,11.86,0,0,1,1-3.59,22.46,22.46,0,0,1,1.92-2.84,33.6,33.6,0,0,0,1.65-3.08,30,30,0,0,0,1.33-3.33.18.18,0,0,1,.2-.09.17.17,0,0,1,.1.13"/>
        <path d="M196.35,138.53a14.21,14.21,0,0,1,1.91,3.11,13.37,13.37,0,0,1,1,3.61,7.49,7.49,0,0,1,0,3.82,5.68,5.68,0,0,1-2.45,3.06.17.17,0,0,1-.25-.06h0V152h0a10,10,0,0,1-.21-1.89v-1.66a6.43,6.43,0,0,1,.25-1.56,9.14,9.14,0,0,0,.34-1.57,16.34,16.34,0,0,0,0-3.28,16.94,16.94,0,0,0-.73-3.36.13.13,0,0,1,.09-.18h0a.17.17,0,0,1,.17,0"/>
        <path d="M224.51,199.35c3.06-1.23,6.16-2.34,9.27-3.45s6.24-2.19,9.41-3.09a166.39,166.39,0,0,1,19.32-4.72c3.28-.53,6.59-1,9.91-1.2s6.65-.33,10-.2A91.92,91.92,0,0,1,302,189.35c-6.59-.38-13.14-.56-19.65-.32-3.26.15-6.5.33-9.74.69s-6.45.76-9.65,1.33-6.4,1.18-9.59,1.87-6.39,1.45-9.6,2.15-6.4,1.49-9.6,2.23-6.41,1.45-9.67,2"/>
        <path d="M219.51,209.35a95.14,95.14,0,0,1,10.44,2,100,100,0,0,1,10.19,3,41.47,41.47,0,0,1,5,2.13,22.42,22.42,0,0,1,4.5,3.23,26,26,0,0,1,6.37,8.64,54.14,54.14,0,0,0-7.81-6.85,32.68,32.68,0,0,0-4.32-2.52c-1.5-.68-3.13-1.27-4.76-1.85-3.27-1.17-6.58-2.34-9.86-3.59a93.2,93.2,0,0,1-9.75-4.19"/>
        <path d="M86.51,198.85c-5.47-1.31-10.89-2.57-16.33-3.62-2.72-.47-5.45-.93-8.2-1.3s-5.5-.78-8.27-1.11L37.13,190.7c-5.53-.71-11.07-1.43-16.62-2.35a157.47,157.47,0,0,1,16.83,0c2.8.11,5.59.36,8.39.58s5.58.57,8.37.9a135.9,135.9,0,0,1,16.6,3.11,91.15,91.15,0,0,1,15.81,5.91"/>
        <path d="M92,209.35c-3.34.86-6.58,1.71-9.75,2.77A86.43,86.43,0,0,0,73,215.81a85.26,85.26,0,0,0-8.71,4.76c-2.82,1.78-5.54,3.78-8.32,5.78A34,34,0,0,1,63,218.67a41.52,41.52,0,0,1,8.81-5.58,42.42,42.42,0,0,1,9.91-3.23A34.82,34.82,0,0,1,92,209.35"/>
        <g>
          <path class="cls-18" d="M155.08,198.35a19.92,19.92,0,0,0,3.93,9,20.82,20.82,0,0,0,13,7.5"/>
          <path class="cls-18" d="M155.14,198.16a20.16,20.16,0,0,1-3.94,9,20.82,20.82,0,0,1-13,7.5"/>
        </g>
      </g>
      <circle class="cls-19" cx="201.72" cy="170.75" r="5.23"/>
      <circle class="cls-19" cx="124.82" cy="171.68" r="5.23"/>
      <ellipse class="cls-20" cx="115.39" cy="177.53" rx="19.37" ry="16.66"/>
      <circle class="cls-21" cx="196.85" cy="176.64" r="19.37"/>
    </g>
  </g>
  <g id="left_eye" data-name="left eye">
    <ellipse cx="116.95" cy="187.29" rx="10.9" ry="10.66"/>
    <circle class="cls-1" cx="116.95" cy="191.19" r="3.46"/>
  </g>
  <g id="right_eye" data-name="right eye">
    <ellipse cx="198.05" cy="188.12" rx="10.9" ry="10.66"/>
    <circle class="cls-1" cx="197.78" cy="191.19" r="3.46"/>
  </g>
</svg>
